<svg xmlns:xlink="http://www.w3.org/1999/xlink" xmlns="http://www.w3.org/2000/svg" viewBox="0 0 370 101.15733045212768" preserveAspectRatio="xMidYMid meet" class="css-f87xc7" id="efahhehd" width="370"  height="101.15733045212768" ><defs id="SvgjsDefs1001"></defs><g id="SvgjsG1007" featurekey="PG4fjM-0" transform="matrix(2.1276595744680855,0,0,2.1276595744680855,-8.510638297872342,-7.931973071808512)" fill="#111111"><g xmlns="http://www.w3.org/2000/svg" fill="#111111"><g fill="#111111"><path d="M27.559082,51.2719727c-0.1425781,0-0.2749023,0-0.4174805-0.0107422    c-6.7182617-0.1074219-13.1293945-3.4169922-17.1376953-8.8583984c-0.0209961-0.0205078-0.0405273-0.0419922-0.0581055-0.0654297    C7.1875,38.5786133,5.7294922,34.1157227,5.7294922,29.4321289c0-2.7675781,0.5097656-5.4501953,1.515625-7.9746094    c0.1015625-0.2568359,0.3925781-0.3789063,0.6494141-0.2802734c0.2563477,0.1025391,0.3818359,0.3935547,0.2792969,0.6494141    c-0.9584961,2.4072266-1.4443359,4.9658203-1.4443359,7.6054688c0,4.4423828,1.3745117,8.6757813,3.9755859,12.2490234    c0.0209961,0.0195313,0.0405273,0.0419922,0.0581055,0.0654297c3.8208008,5.2285156,9.9604492,8.4121094,16.4238281,8.515625    c0.1469727,0.0107422,0.2587891,0.0107422,0.3720703,0.0097656c0.1225586,0.0029297,0.2260742,0.0009766,0.3432617-0.0087891    c11.3149414-0.1953125,20.4970703-9.5400391,20.4970703-20.8310547c0-2.6396484-0.4858398-5.1982422-1.4443359-7.6054688    c-0.1025391-0.2558594,0.0229492-0.546875,0.2792969-0.6494141c0.2573242-0.0986328,0.5478516,0.0234375,0.6494141,0.2802734    c1.0058594,2.5244141,1.515625,5.2070313,1.515625,7.9746094c0,11.8330078-9.6230469,21.6259766-21.4511719,21.8300781    C27.8334961,51.2719727,27.7021484,51.2719727,27.559082,51.2719727z" fill="#111111"></path></g><g fill="#111111"><path d="M27.559082,51.2719727c-0.1425781,0-0.2749023,0-0.4174805-0.0107422    c-4.0380859-0.2695313-7.6181641-4.4375-9.5722656-11.1494141c-0.9487305-3.2412109-1.4501953-6.9345703-1.4501953-10.6796875    c0-2.703125,0.2553711-5.3564453,0.7597656-7.8876953c0.0541992-0.2714844,0.3134766-0.4492188,0.5878906-0.3925781    c0.2709961,0.0537109,0.4467773,0.3173828,0.3925781,0.5878906c-0.4912109,2.4667969-0.7402344,5.0546875-0.7402344,7.6923828    c0,3.6513672,0.487793,7.2470703,1.4101563,10.3994141c1.8046875,6.1982422,5.1318359,10.1953125,8.6831055,10.4316406    c0.121582,0.0097656,0.2338867,0.0126953,0.3466797,0.0087891c0.1225586,0.0029297,0.2260742,0.0009766,0.3432617-0.0087891    c3.5551758-0.2363281,6.8823242-4.2333984,8.6870117-10.4306641c0.9223633-3.1533203,1.4101563-6.7490234,1.4101563-10.4003906    c0-2.6376953-0.2490234-5.2255859-0.7402344-7.6923828c-0.0541992-0.2705078,0.121582-0.5341797,0.3925781-0.5878906    c0.2680664-0.0585938,0.5341797,0.1210938,0.5878906,0.3925781c0.5043945,2.53125,0.7597656,5.1845703,0.7597656,7.8876953    c0,3.7451172-0.5014648,7.4384766-1.4501953,10.6806641c-1.9541016,6.7109375-5.5341797,10.8789063-9.5766602,11.1484375    C27.8334961,51.2719727,27.7021484,51.2719727,27.559082,51.2719727z" fill="#111111"></path></g><g fill="#111111"><path d="M27.559082,51.2719727c-0.2763672,0-0.5-0.2236328-0.5-0.5V21.6420898c0-0.2763672,0.2236328-0.5,0.5-0.5    s0.5,0.2236328,0.5,0.5v29.1298828C28.059082,51.0483398,27.8354492,51.2719727,27.559082,51.2719727z" fill="#111111"></path></g><g fill="#111111"><path d="M48.8945313,29.9370117H6.2241211c-0.2763672,0-0.5-0.2236328-0.5-0.5s0.2236328-0.5,0.5-0.5h42.6704102    c0.2763672,0,0.5,0.2236328,0.5,0.5S49.1708984,29.9370117,48.8945313,29.9370117z" fill="#111111"></path></g><g fill="#111111"><g fill="#111111"><path d="M10.3452148,42.543457c-0.2094727,0-0.4047852-0.1328125-0.4746094-0.3427734     c-0.0869141-0.2617188,0.0551758-0.5449219,0.3173828-0.6318359c12.1875-4.0429688,22.5351563-4.0595703,34.6025391-0.0556641     c0.2617188,0.0869141,0.4038086,0.3701172,0.3168945,0.6318359s-0.3681641,0.4042969-0.6323242,0.3173828     c-12.0024414-3.9833984-21.8442383-3.9677734-33.9726563,0.0556641     C10.4501953,42.5356445,10.3974609,42.543457,10.3452148,42.543457z" fill="#111111"></path></g></g><g fill="#111111"><g fill="#111111"><path d="M13.1200781,12.3419371l-0.4499998,1.7299995l-1.3600006-4.7799997H9.4300776l2.3100004,7.2900009h1.8800001     l1.2299995-4.6900005l1.2599993,4.6900005h1.0400009h0.8199997l1.3600006-4.2400007l0.9799995-3.0500002h-1.4400005H18.410078     l-0.0500011,0.1899996h-0.0099983l-1.3400002,4.5900002l-0.9099998-3.5900002l-0.3000011-1.1899996h-1.8699999l-0.8000002,3.04     L13.1200781,12.3419371z" fill="#111111"></path></g><g fill="#111111"><path d="M24.3148823,16.5868702l-2.3095627-7.2998667h1.8765202l1.3678646,4.7840939l1.2578869-4.7840939h1.862772     l1.2166443,4.7840939l1.3953609-4.7840939h1.9040146l-2.3439312,7.2998667H28.686554l-1.2578869-4.6947355l-1.2372646,4.6947355     H24.3148823z" fill="#111111"></path></g><g fill="#111111"><path d="M36.2500763,9.2919369h-1.5599976l0.8600006,2.7200003l0.0099983,0.0199995l1.4399986,4.5500011h1.8800011     l1.2299995-4.6900005l1.2600021,4.6900005h1.8600006l0.8099976-2.5100012l1.5299988-4.7799997h-1.8999977l-1.0400009,3.54     l-0.3600006,1.2399998l-0.4799995-1.8899994l-0.7299995-2.8900003h-1.8699989l-0.2999992,1.1199999l-0.9600029,3.6599998     l-1.3199997-4.6599998h-0.0099983L36.2500763,9.2919369z" fill="#111111"></path></g></g><g fill="#111111"><path d="M50.5,22.1459961h-46c-0.2763672,0-0.5-0.2236328-0.5-0.5V4.2280273c0-0.2763672,0.2236328-0.5,0.5-0.5h46    c0.2763672,0,0.5,0.2236328,0.5,0.5v17.4179688C51,21.9223633,50.7763672,22.1459961,50.5,22.1459961z M5,21.1459961h45V4.7280273    H5V21.1459961z" fill="#111111"></path></g></g></g><g id="SvgjsG1008" featurekey="jxYttZ-0" transform="matrix(4.437344680917908,0,0,4.437344680917908,116.45012446685476,-16.872914891152146)" fill="#111111"><path d="M5.42 9.92 c2.84 0 3.98 1.72 3.98 3.18 l0 6.9 l-2.06 0 l0 -1.08 c-0.72 0.98 -2 1.26 -2.8 1.26 c-2.26 0 -3.74 -1.32 -3.74 -3.08 c0 -2.46 1.84 -3.34 3.74 -3.34 l2.8 0 l0 -0.66 c0 -0.62 -0.24 -1.48 -1.92 -1.48 c-0.94 0 -1.8 0.5 -2.36 1.28 l-1.42 -1.28 c0.94 -1.04 2.28 -1.7 3.78 -1.7 z M7.34 16.92 l0 -1.48 l-2.52 0 c-1.22 0 -2.08 0.62 -1.94 1.74 c0.12 0.94 0.88 1.32 1.94 1.32 c1.9 0 2.52 -0.9 2.52 -1.58 z M14.24 10.12 l0 9.88 l-2.06 0 l0 -9.88 l2.06 0 z M14.34 6.5 c0 0.64 -0.5 1.14 -1.14 1.14 c-0.62 0 -1.12 -0.5 -1.12 -1.14 c0 -0.62 0.5 -1.12 1.12 -1.12 c0.64 0 1.14 0.5 1.14 1.12 z M21.88 11.64 c-1.7 0 -3.08 1.42 -3.08 3.44 c0 2 1.38 3.44 3.08 3.44 s3.08 -1.44 3.08 -3.44 c0 -2.02 -1.38 -3.44 -3.08 -3.44 z M21.88 9.94 c2.84 0 5.14 2.2 5.14 5.14 s-2.3 5.12 -5.14 5.12 s-5.14 -2.18 -5.14 -5.12 s2.3 -5.14 5.14 -5.14 z M35.16 10.24 l-0.44 1.62 c-0.14 -0.08 -0.58 -0.22 -0.94 -0.22 c-1.7 0 -2.5 1.62 -2.5 3.62 l0 4.74 l-2.06 0 l0 -9.88 l2.06 0 l0 1.4 c0.24 -0.92 1.3 -1.58 2.48 -1.58 c0.54 0 1.12 0.14 1.4 0.3 z M45.67999999999999 15.08 l0 0.74 l-7.78 0 c0 1.82 1.74 2.7 3.02 2.7 c0.94 0 1.98 -0.5 2.54 -1.3 l1.42 1.28 c-0.66 0.9 -1.74 1.7 -3.96 1.7 c-3.2 0 -5.16 -2.18 -5.16 -5.12 s1.9 -5.14 4.96 -5.14 s4.46 1.7 4.88 4.18 c0.06 0.32 0.08 0.64 0.08 0.96 z M37.94 14.120000000000001 l5.58 0 c0 -1.6 -1.28 -2.48 -2.8 -2.48 s-2.78 1.02 -2.78 2.48 z M52.22 20.2 c-2.84 0 -4.94 -2.18 -4.94 -5.12 s2.1 -5.14 4.94 -5.14 c0.98 0 2.06 0.36 2.84 0.96 l0 -0.78 l2.08 0 l0 14.98 l-2.08 0 l0 -5.84 c-0.66 0.54 -1.86 0.94 -2.84 0.94 z M52.419999999999995 11.64 c-1.7 0 -3.08 1.42 -3.08 3.44 c0 2 1.38 3.44 3.08 3.44 c1.12 0 2.1 -0.52 2.64 -1.58 c0.28 -0.54 0.44 -1.18 0.44 -1.86 s-0.16 -1.32 -0.44 -1.86 c-0.54 -1.08 -1.52 -1.58 -2.64 -1.58 z" fill="#111111"></path></g></svg>